<?xml version="1.0" encoding="UTF-8"?><svg id="Layer_1" xmlns="http://www.w3.org/2000/svg" xmlns:xlink="http://www.w3.org/1999/xlink" viewBox="0 0 1920 1920"><defs><style>.cls-1{fill:url(#linear-gradient);}</style><linearGradient id="linear-gradient" x1="5" y1="960" x2="1821" y2="960" gradientTransform="matrix(1, 0, 0, 1, 0, 0)" gradientUnits="userSpaceOnUse"><stop offset="0" stop-color="#ef4444"/><stop offset="1" stop-color="#ec4899"/></linearGradient></defs><path class="cls-1" d="M1729.9,1274.18l-1.25,1.81v-1.4h-651.16l-266.95-314.31,267.08-314.46h651.04v-1.4l1.25,1.81,91.1-62.93L1484.71,96.48v-3.12H741.81v2.3l-1.09-.93L9.24,955.99l-4.24,3.6,.59,.69-.59,.69,4.24,3.6,731.49,861.26,1.09-.93v1.73h705.74v-.05h37.15v-2.65l336.29-486.82-91.1-62.93Zm-558.25-739.08l265.52-312.62,215.96,312.62h-481.48Zm-383.17,1175.71L151.04,960.28,788.96,209.19h514.03L668.72,955.99l-4.24,3.6,.59,.69-.59,.69,4.24,3.6,633.79,746.23H788.48Zm648.63-12.78l-265.59-312.7h481.6l-216.01,312.7Z"/></svg>