<?xml version="1.0" encoding="UTF-8"?><svg id="Layer_1" xmlns="http://www.w3.org/2000/svg" xmlns:xlink="http://www.w3.org/1999/xlink" viewBox="0 0 1920 1920"><defs><style>.cls-1{fill:url(#linear-gradient);}</style><linearGradient id="linear-gradient" x1="411" y1="960" x2="1415" y2="960" gradientTransform="matrix(1, 0, 0, 1, 0, 0)" gradientUnits="userSpaceOnUse"><stop offset="0" stop-color="#ef4444"/><stop offset="1" stop-color="#ec4899"/></linearGradient></defs><path class="cls-1" d="M1364.63,1133.7l-.69,1v-.77h-360l-147.59-173.77,147.66-173.85h359.94v-.77l.69,1,50.37-34.79-185.92-269.15v-1.73h-410.72v1.27l-.6-.51-404.41,476.16-2.34,1.99,.33,.38-.33,.38,2.34,1.99,404.41,476.16,.6-.51v.96h390.18v-.03h20.54v-1.46l185.92-269.15-50.37-34.79Zm-308.64-408.61l146.8-172.84,119.39,172.84h-266.19Zm-211.84,650.01l-352.42-414.94,352.68-415.25h284.19l-350.67,412.88-2.34,1.99,.33,.38-.33,.38,2.34,1.99,350.4,412.56h-284.19Zm358.6-7.07l-146.83-172.88h266.26l-119.42,172.88Z"/></svg>