<?xml version="1.0" encoding="UTF-8"?><svg id="Ranks" xmlns="http://www.w3.org/2000/svg" viewBox="0 0 1920 1705"><defs><style>.cls-1{fill:#009245;}.cls-2{fill:#fff;font-family:JetBrainsMono-Regular, 'JetBrains Mono';font-size:500px;}.cls-3{fill:#39b54a;}.cls-4{fill:none;}</style></defs><g id="A"><g><g><polygon class="cls-3" points="1374 334.26 950 758.26 526 334.26 526 1227.84 525.74 1228.07 950 1603.26 1374.26 1228.07 1374 1227.84 1374 334.26"/><polygon class="cls-3" points="1374.26 226 1374 225.74 1374 119 949.87 542.26 526 119.26 526 225.74 525.74 226 950 650.26 1374.26 226"/></g><g><g><polygon class="cls-4" points="1374 1227.94 1374 334.37 1174.99 533.38 904.17 1562.84 950 1603.37 1374.26 1228.18 1374 1227.94"/><polygon class="cls-4" points="526 334.37 526 1227.94 525.74 1228.18 556.61 1255.48 742.08 550.45 526 334.37"/><polygon class="cls-1" points="950 758.37 742.08 550.45 556.61 1255.48 904.17 1562.84 1174.99 533.38 950 758.37"/></g><g><polygon class="cls-4" points="786.21 381.18 526 121.5 526 227.97 525.74 228.24 763.82 466.32 786.21 381.18"/><polygon class="cls-4" points="1374.26 228.24 1374 227.97 1374 121.24 1250.62 244.37 1212.24 390.26 1374.26 228.24"/><polygon class="cls-1" points="950 652.5 1212.24 390.26 1250.62 244.37 949.87 544.5 786.21 381.18 763.82 466.32 950 652.5"/></g></g></g><text class="cls-2" transform="translate(799.24 1270.7)"><tspan x="0" y="0">A</tspan></text></g></svg>