<?xml version="1.0" encoding="UTF-8"?><svg id="Ranks" xmlns="http://www.w3.org/2000/svg" viewBox="0 0 1920 1705"><defs><style>.cls-1{fill:#fff;font-family:JetBrainsMono-Regular, 'JetBrains Mono';font-size:500px;}.cls-2{fill:#0071bc;}.cls-3{fill:none;}.cls-4{fill:#29abe2;}</style></defs><g id="B"><g><g><polygon class="cls-4" points="1374 335.26 950 759.26 526 335.26 526 1228.84 525.74 1229.07 950 1604.26 1374.26 1229.07 1374 1228.84 1374 335.26"/><polygon class="cls-4" points="1374.26 227 1374 226.74 1374 120 949.87 543.26 526 120.26 526 226.74 525.74 227 950 651.26 1374.26 227"/></g><g><g><polygon class="cls-3" points="1374 1228.94 1374 335.37 1174.99 534.38 904.17 1563.84 950 1604.37 1374.26 1229.18 1374 1228.94"/><polygon class="cls-3" points="526 335.37 526 1228.94 525.74 1229.18 556.61 1256.48 742.08 551.45 526 335.37"/><polygon class="cls-2" points="950 759.37 742.08 551.45 556.61 1256.48 904.17 1563.84 1174.99 534.38 950 759.37"/></g><g><polygon class="cls-3" points="786.21 382.18 526 122.5 526 228.97 525.74 229.24 763.82 467.32 786.21 382.18"/><polygon class="cls-3" points="1374.26 229.24 1374 228.97 1374 122.24 1250.62 245.37 1212.24 391.26 1374.26 229.24"/><polygon class="cls-2" points="950 653.5 1212.24 391.26 1250.62 245.37 949.87 545.5 786.21 382.18 763.82 467.32 950 653.5"/></g></g></g><text class="cls-1" transform="translate(799.24 1271.7)"><tspan x="0" y="0">B</tspan></text></g></svg>