<?xml version="1.0" encoding="UTF-8"?><svg id="Ranks" xmlns="http://www.w3.org/2000/svg" viewBox="0 0 1920 1547"><defs><style>.cls-1{fill:#fff;font-family:JetBrainsMono-Regular, 'JetBrains Mono';font-size:500px;}.cls-2{fill:#662d91;}.cls-3{fill:none;}.cls-4{fill:#93278f;}</style></defs><g id="C"><g><polygon class="cls-4" points="1374 177.26 950 601.26 526 177.26 526 1070.84 525.74 1071.07 950 1446.26 1374.26 1071.07 1374 1070.84 1374 177.26"/><g><polygon class="cls-3" points="1374 1070.94 1374 177.37 1174.99 376.38 904.17 1405.84 950 1446.37 1374.26 1071.18 1374 1070.94"/><polygon class="cls-3" points="526 177.37 526 1070.94 525.74 1071.18 556.61 1098.48 742.08 393.45 526 177.37"/><polygon class="cls-2" points="950 601.37 742.08 393.45 556.61 1098.48 904.17 1405.84 1174.99 376.38 950 601.37"/></g></g><text class="cls-1" transform="translate(799.24 1113.7)"><tspan x="0" y="0">C</tspan></text></g></svg>