<?xml version="1.0" encoding="UTF-8"?><svg id="Ranks" xmlns="http://www.w3.org/2000/svg" viewBox="0 0 1920 1552.5"><defs><style>.cls-1{fill:#fff;font-family:JetBrainsMono-Regular, 'JetBrains Mono';font-size:500px;}.cls-2{fill:#d9e021;}.cls-3{fill:none;}.cls-4{fill:#fcee21;}</style></defs><g id="D"><g><polygon class="cls-4" points="1374 174.76 960 174.5 526 174.76 526 1068.34 525.74 1068.57 950 1443.76 1374.26 1068.57 1374 1068.34 1374 174.76"/><g><polygon class="cls-3" points="1374 1068.44 1374 174.87 1174.99 373.88 904.17 1403.34 950 1443.87 1374.26 1068.68 1374 1068.44"/><polygon class="cls-3" points="526 174.87 526 1068.44 525.74 1068.68 556.61 1095.98 742.08 390.95 526 174.87"/><polygon class="cls-2" points="1030 174.5 816 174.5 556.61 1095.98 904.17 1403.34 1227 174.5 1030 174.5"/></g></g><text class="cls-1" transform="translate(799.24 1111.2)"><tspan x="0" y="0">D</tspan></text></g></svg>