<?xml version="1.0" encoding="UTF-8"?><svg id="Ranks" xmlns="http://www.w3.org/2000/svg" viewBox="0 0 1920 1552.75"><defs><style>.cls-1{fill:#fff;font-family:JetBrainsMono-Regular, 'JetBrains Mono';font-size:500px;}.cls-2{fill:gray;}.cls-3{fill:none;}.cls-4{fill:#666;}</style></defs><g id="E"><g><polygon class="cls-2" points="1374 183.02 960 182.76 526 183.02 526 1076.6 525.74 1076.83 950 1452.02 1374.26 1076.83 1374 1076.6 1374 183.02"/><g><polygon class="cls-3" points="1374 1076.7 1374 183.13 1174.99 382.14 904.17 1411.6 950 1452.13 1374.26 1076.94 1374 1076.7"/><polygon class="cls-3" points="526 183.13 526 1076.7 525.74 1076.94 556.61 1104.24 742.08 399.21 526 183.13"/><polygon class="cls-4" points="1030 182.76 816 182.76 556.61 1104.24 904.17 1411.6 1227 182.76 1030 182.76"/></g></g><text class="cls-1" transform="translate(799.24 1119.45)"><tspan x="0" y="0">E</tspan></text></g></svg>