<?xml version="1.0" encoding="UTF-8"?><svg id="Ranks" xmlns="http://www.w3.org/2000/svg" viewBox="0 0 1920 1920"><defs><style>.cls-1{fill:#c1272d;}.cls-2{fill:#fff;font-family:JetBrainsMono-Regular, 'JetBrains Mono';font-size:500px;}.cls-3{fill:none;}.cls-4{fill:#ed1c24;}</style></defs><g id="S"><g><g><polygon class="cls-4" points="1374 551.26 950 975.26 526 551.26 526 1444.84 525.74 1445.07 950 1820.26 1374.26 1445.07 1374 1444.84 1374 551.26"/><polygon class="cls-4" points="1374.26 443 1374 442.74 1374 336 949.87 759.26 526 336.26 526 442.74 525.74 443 950 867.26 1374.26 443"/><polygon class="cls-4" points="1374.26 227.24 1374 226.97 1374 120.24 949.87 543.5 526 120.5 526 226.97 525.74 227.24 950 651.5 1374.26 227.24"/></g><g><g><polygon class="cls-3" points="1374 1444.94 1374 551.37 1174.99 750.38 904.17 1779.84 950 1820.37 1374.26 1445.18 1374 1444.94"/><polygon class="cls-3" points="526 551.37 526 1444.94 525.74 1445.18 556.61 1472.48 742.08 767.45 526 551.37"/><polygon class="cls-1" points="950 975.37 742.08 767.45 556.61 1472.48 904.17 1779.84 1174.99 750.38 950 975.37"/></g><g><polygon class="cls-3" points="832.43 426.3 526 120.5 526 226.97 525.74 227.24 810.01 511.51 832.43 426.3"/><polygon class="cls-3" points="1374.26 227.24 1374 226.97 1374 120.24 1329.74 164.41 1291.41 310.09 1374.26 227.24"/><polygon class="cls-1" points="950 651.5 1291.41 310.09 1329.74 164.41 949.87 543.5 832.43 426.3 810.01 511.51 950 651.5"/></g><g><polygon class="cls-3" points="786.21 598.18 526 338.5 526 444.97 525.74 445.24 763.82 683.32 786.21 598.18"/><polygon class="cls-3" points="1374.26 445.24 1374 444.97 1374 338.24 1250.62 461.37 1212.24 607.26 1374.26 445.24"/><polygon class="cls-1" points="950 869.5 1212.24 607.26 1250.62 461.37 949.87 761.5 786.21 598.18 763.82 683.32 950 869.5"/></g></g></g><text class="cls-2" transform="translate(807.18 1487.7)"><tspan x="0" y="0">S</tspan></text></g></svg>