<?xml version="1.0" encoding="UTF-8"?><svg id="Ranks" xmlns="http://www.w3.org/2000/svg" viewBox="0 0 1920 1920"><defs><style>.cls-1{fill:#fff;font-family:JetBrainsMono-Regular, 'JetBrains Mono';font-size:500px;}.cls-2{fill:#f7931e;}.cls-3{fill:none;}.cls-4{fill:#fbb03b;}</style></defs><g id="S_"><g><g><polygon class="cls-4" points="1374 550.26 950 974.26 526 550.26 526 1443.84 525.74 1444.07 950 1819.26 1374.26 1444.07 1374 1443.84 1374 550.26"/><polygon class="cls-4" points="1374.26 442 1374 441.74 1374 335 949.87 758.26 526 335.26 526 441.74 525.74 442 950 866.26 1374.26 442"/><polygon class="cls-4" points="1374.26 226.24 1374 225.97 1374 119.24 949.87 542.5 526 119.5 526 225.97 525.74 226.24 950 650.5 1374.26 226.24"/></g><g><g><polygon class="cls-3" points="1374 1443.94 1374 550.37 1174.99 749.38 904.17 1778.84 950 1819.37 1374.26 1444.18 1374 1443.94"/><polygon class="cls-3" points="526 550.37 526 1443.94 525.74 1444.18 556.61 1471.48 742.08 766.45 526 550.37"/><polygon class="cls-2" points="950 974.37 742.08 766.45 556.61 1471.48 904.17 1778.84 1174.99 749.38 950 974.37"/></g><g><polygon class="cls-3" points="832.43 425.3 526 119.5 526 225.97 525.74 226.24 810.01 510.51 832.43 425.3"/><polygon class="cls-3" points="1374.26 226.24 1374 225.97 1374 119.24 1329.74 163.41 1291.41 309.09 1374.26 226.24"/><polygon class="cls-2" points="950 650.5 1291.41 309.09 1329.74 163.41 949.87 542.5 832.43 425.3 810.01 510.51 950 650.5"/></g><g><polygon class="cls-3" points="786.21 597.18 526 337.5 526 443.97 525.74 444.24 763.82 682.32 786.21 597.18"/><polygon class="cls-3" points="1374.26 444.24 1374 443.97 1374 337.24 1250.62 460.37 1212.24 606.26 1374.26 444.24"/><polygon class="cls-2" points="950 866.5 1212.24 604.26 1250.62 458.37 949.87 758.5 786.21 595.18 763.82 680.32 950 866.5"/></g></g></g><text class="cls-1" transform="translate(660.57 1486.7)"><tspan x="0" y="0">S+</tspan></text></g></svg>